<svg width="35" height="35" viewBox="0 0 35 35" fill="none" xmlns="http://www.w3.org/2000/svg">
<g clip-path="url(#clip0_1_2066)">
<path d="M21.6621 8.06599C21.7748 8.09067 21.8699 8.17169 21.8629 8.32674C21.8242 9.1019 21.7819 9.88052 21.5881 10.6345C21.6128 10.8459 21.4824 11.0925 21.2393 11.0609C19.5058 10.8319 18.8751 12.3927 18.6496 14.1508C19.474 14.2002 20.2915 14.2636 21.0878 14.334C21.2358 14.3481 21.3168 14.4503 21.3344 14.563C21.3767 14.5912 21.4154 14.6335 21.433 14.6969C21.5739 15.155 21.5774 15.6693 21.5881 16.1485C21.5951 16.5255 21.6409 16.9518 21.3872 17.2513C21.4189 17.4275 21.3238 17.6318 21.0877 17.6389C20.2421 17.6494 19.3859 17.6636 18.5262 17.6706C18.5262 17.7552 18.5262 17.8397 18.5227 17.9172C18.4628 20.218 18.5614 22.5116 18.5368 24.8088C18.5332 24.9885 18.3888 25.0554 18.2584 25.0308C18.2408 25.0413 18.2232 25.0555 18.2021 25.0625C17.7687 25.1999 17.2789 25.1788 16.828 25.1929C16.3805 25.2034 15.9402 25.214 15.4961 25.1365C15.3869 25.1717 15.253 25.1365 15.2284 24.9921C14.8303 22.716 14.8973 20.3131 14.9078 18.0089C14.9078 17.8644 14.9078 17.72 14.9078 17.5755C14.2066 17.5297 13.509 17.4592 12.822 17.3605C12.7163 17.3429 12.6634 17.2724 12.6564 17.1914C12.4027 17.0223 12.4626 16.5784 12.4591 16.3C12.4485 15.7011 12.3816 15.007 12.5542 14.4292C12.5718 14.3693 12.614 14.3305 12.6669 14.3023C12.6986 14.2671 12.7444 14.2424 12.8078 14.2354C13.509 14.1508 14.2312 14.1015 14.9606 14.0768C14.9958 13.4144 15.0558 12.752 15.1579 12.1038C15.6406 9.01027 18.2937 7.13233 21.4259 7.8546C21.5564 7.88627 21.6303 7.97083 21.6621 8.06599Z" fill="#425876"/>
</g>
<circle cx="17.5" cy="17.5" r="16.5" stroke="#425876" stroke-width="2"/>
<defs>
<clipPath id="clip0_1_2066">
<rect width="17.5" height="17.5" fill="white" transform="translate(8.39844 7.7002)"/>
</clipPath>
</defs>
</svg>
