<svg width="35" height="35" viewBox="0 0 35 35" fill="none" xmlns="http://www.w3.org/2000/svg">
<g clip-path="url(#clip0_1_674)">
<path d="M21.6621 8.06575C21.7748 8.09042 21.8699 8.17145 21.8629 8.32649C21.8242 9.10165 21.7819 9.88027 21.5881 10.6343C21.6128 10.8457 21.4824 11.0923 21.2393 11.0606C19.5058 10.8316 18.8751 12.3925 18.6496 14.1506C19.474 14.1999 20.2915 14.2633 21.0878 14.3338C21.2358 14.3478 21.3168 14.4501 21.3344 14.5628C21.3767 14.591 21.4154 14.6332 21.433 14.6967C21.5739 15.1547 21.5774 15.6691 21.5881 16.1483C21.5951 16.5253 21.6409 16.9516 21.3872 17.2511C21.4189 17.4272 21.3238 17.6316 21.0877 17.6386C20.2421 17.6492 19.3859 17.6633 18.5262 17.6704C18.5262 17.7549 18.5262 17.8395 18.5227 17.917C18.4628 20.2177 18.5614 22.5114 18.5368 24.8086C18.5332 24.9883 18.3888 25.0552 18.2584 25.0306C18.2408 25.0411 18.2232 25.0552 18.2021 25.0622C17.7687 25.1997 17.2789 25.1785 16.828 25.1926C16.3805 25.2031 15.9402 25.2138 15.4961 25.1363C15.3869 25.1715 15.253 25.1363 15.2284 24.9918C14.8303 22.7158 14.8973 20.3129 14.9078 18.0086C14.9078 17.8642 14.9078 17.7197 14.9078 17.5752C14.2066 17.5294 13.509 17.4589 12.822 17.3603C12.7163 17.3427 12.6634 17.2722 12.6564 17.1912C12.4027 17.0221 12.4626 16.5781 12.4591 16.2998C12.4485 15.7008 12.3816 15.0068 12.5542 14.4289C12.5718 14.369 12.614 14.3303 12.6669 14.3021C12.6986 14.2669 12.7444 14.2422 12.8078 14.2351C13.509 14.1506 14.2312 14.1012 14.9606 14.0765C14.9958 13.4142 15.0558 12.7518 15.1579 12.1035C15.6406 9.01002 18.2937 7.13208 21.4259 7.85436C21.5564 7.88603 21.6303 7.97058 21.6621 8.06575Z" fill="#425876"/>
</g>
<circle cx="17.5" cy="17.5" r="16.5" stroke="#425876" stroke-width="2"/>
<defs>
<clipPath id="clip0_1_674">
<rect width="17.5" height="17.5" fill="white" transform="translate(8.39844 7.69995)"/>
</clipPath>
</defs>
</svg>
