<svg width="61" height="60" viewBox="0 0 61 60" fill="none" xmlns="http://www.w3.org/2000/svg">
<circle cx="30.5" cy="30" r="30" fill="white"/>
<g clip-path="url(#clip0_1_759)">
<path d="M13.5 42.0416H47.5M33.3333 26.4583H18.4583C17.9083 26.4582 17.3702 26.6183 16.9096 26.9189C16.449 27.2195 16.0858 27.6477 15.8644 28.1512C15.5612 28.8383 15.9239 29.5905 16.4552 30.1204L22.8727 36.5393C23.6745 37.3411 24.7619 37.7915 25.8958 37.7915C27.0297 37.7915 28.1172 37.3411 28.919 36.5393L34.75 30.7083H37.5833C37.5833 30.7083 41.8843 30.9548 46.7917 28.1215M27.6667 32.8333L21.2917 26.4583M17.3179 23.625C17.3179 23.625 14.7537 22.8359 14.2933 21.109C14.122 20.4693 14.2109 19.7879 14.5406 19.2137C14.8704 18.6395 15.4141 18.2192 16.0528 18.0447C16.3687 17.9602 16.6983 17.939 17.0224 17.9823C17.3465 18.0257 17.6589 18.1328 17.9415 18.2974C18.2241 18.462 18.4713 18.6808 18.6689 18.9414C18.8666 19.202 19.0107 19.499 19.093 19.8155C19.552 21.5425 17.7302 23.513 17.7302 23.513L17.3179 23.625Z" stroke="black" stroke-width="1.41667"/>
</g>
<defs>
<clipPath id="clip0_1_759">
<rect width="34" height="34" fill="white" transform="translate(13.5 13)"/>
</clipPath>
</defs>
</svg>
