<svg width="60" height="60" viewBox="0 0 60 60" fill="none" xmlns="http://www.w3.org/2000/svg">
<circle cx="30" cy="30" r="30" fill="white"/>
<path d="M33.6423 34.2556L34.8578 36.8694C34.8578 36.8694 40.3219 38.0296 40.3219 40.7893C40.3219 42.7499 37.8909 42.7499 37.8909 42.7499H31.4167L28.2292 40.9791" stroke="black" stroke-width="2.125" stroke-linecap="round" stroke-linejoin="round"/>
<path d="M26.3577 34.2556L25.1437 36.8694C25.1437 36.8694 19.6782 38.0296 19.6782 40.7893C19.6782 42.7499 22.1092 42.7499 22.1092 42.7499H25.0417L28.2292 40.9791L32.125 38.4999" stroke="black" stroke-width="2.125" stroke-linecap="round" stroke-linejoin="round"/>
<path d="M17.25 35.5618C17.25 35.5618 20.2859 34.9087 22.1077 34.2557C23.9282 25.1068 29.3908 25.7599 30 25.7599C30.6077 25.7599 36.0718 25.1068 37.8922 34.2557C39.7141 34.9073 42.75 35.5618 42.75 35.5618M30 22.9167C30.7514 22.9167 31.4721 22.6182 32.0035 22.0868C32.5348 21.5554 32.8333 20.8348 32.8333 20.0833C32.8333 19.3319 32.5348 18.6112 32.0035 18.0799C31.4721 17.5485 30.7514 17.25 30 17.25C29.2486 17.25 28.5279 17.5485 27.9965 18.0799C27.4652 18.6112 27.1667 19.3319 27.1667 20.0833C27.1667 20.8348 27.4652 21.5554 27.9965 22.0868C28.5279 22.6182 29.2486 22.9167 30 22.9167Z" stroke="black" stroke-width="2.125" stroke-linecap="round" stroke-linejoin="round"/>
</svg>
