<svg width="60" height="60" viewBox="0 0 60 60" fill="none" xmlns="http://www.w3.org/2000/svg">
<circle cx="30" cy="30" r="30" fill="white"/>
<path d="M42.75 19.375V27.875C42.75 28.8667 42.0417 29.8583 41.05 30V37.5083C41.05 39.35 39.9167 42.8917 35.6667 42.8917H33.5417C34.1083 42.325 34.675 41.6167 34.9583 40.7667H35.6667C38.6417 40.7667 38.7833 38.075 38.7833 37.65V30C37.7917 29.8583 37.0833 29.0083 37.0833 27.875V19.375C37.0833 18.2417 38.075 17.25 39.2083 17.25H40.625C41.7583 17.25 42.75 18.2417 42.75 19.375ZM33.9667 38.7833C33.9667 40.9083 32.2667 42.75 30 42.75H24.3333C20.0833 42.75 18.95 39.2083 18.95 37.3667V30C17.9583 29.8583 17.25 28.8667 17.25 27.875V19.375C17.25 18.2417 18.2417 17.25 19.375 17.25H20.7917C21.925 17.25 22.9167 18.2417 22.9167 19.375V27.875C22.9167 28.8667 22.2083 29.8583 21.2167 30V37.5083C21.2167 38.075 21.3583 40.625 24.3333 40.625H26.6C26.3167 40.0583 26.175 39.4917 26.175 38.925V24.7583C26.175 22.6333 27.875 20.7917 30.1417 20.7917C32.4083 20.7917 33.9667 22.4917 33.9667 24.7583M31.7 24.6167C31.7 23.7667 30.9917 22.9167 30 22.9167C29.0083 22.9167 28.3 23.7667 28.3 24.6167V38.7833C28.3 39.775 29.15 40.4833 30 40.4833C30.85 40.4833 31.7 39.6333 31.7 38.7833V24.6167Z" fill="black"/>
</svg>
