<svg width="40" height="40" viewBox="0 0 40 40" fill="none" xmlns="http://www.w3.org/2000/svg">
<circle cx="20" cy="20" r="20" fill="#8ECAE6" fill-opacity="0.25"/>
<path d="M29.97 26.83C29.97 27.19 29.89 27.56 29.72 27.92C29.55 28.28 29.33 28.62 29.04 28.94C28.55 29.48 28.01 29.87 27.4 30.12C26.8 30.37 26.15 30.5 25.45 30.5C24.43 30.5 23.34 30.26 22.19 29.77C21.04 29.28 19.89 28.62 18.75 27.79C17.6 26.95 16.51 26.02 15.47 24.99C14.44 23.95 13.51 22.86 12.68 21.72C11.86 20.58 11.2 19.44 10.72 18.31C10.24 17.17 10 16.08 10 15.04C10 14.36 10.12 13.71 10.36 13.11C10.6 12.5 10.98 11.94 11.51 11.44C12.15 10.81 12.85 10.5 13.59 10.5C13.87 10.5 14.15 10.56 14.4 10.68C14.66 10.8 14.89 10.98 15.07 11.24L17.39 14.51C17.57 14.76 17.7 14.99 17.79 15.21C17.88 15.42 17.93 15.63 17.93 15.82C17.93 16.06 17.86 16.3 17.72 16.53C17.59 16.76 17.4 17 17.16 17.24L16.4 18.03C16.29 18.14 16.24 18.27 16.24 18.43C16.24 18.51 16.25 18.58 16.27 18.66C16.3 18.74 16.33 18.8 16.35 18.86C16.53 19.19 16.84 19.62 17.28 20.14C17.73 20.66 18.21 21.19 18.73 21.72C19.27 22.25 19.79 22.74 20.32 23.19C20.84 23.63 21.27 23.93 21.61 24.11C21.66 24.13 21.72 24.16 21.79 24.19C21.87 24.22 21.95 24.23 22.04 24.23C22.21 24.23 22.34 24.17 22.45 24.06L23.21 23.31C23.46 23.06 23.7 22.87 23.93 22.75C24.16 22.61 24.39 22.54 24.64 22.54C24.83 22.54 25.03 22.58 25.25 22.67C25.47 22.76 25.7 22.89 25.95 23.06L29.26 25.41C29.52 25.59 29.7 25.8 29.81 26.05C29.91 26.3 29.97 26.55 29.97 26.83Z" stroke="#425876" stroke-width="1.5" stroke-miterlimit="10"/>
</svg>
