<svg width="56" height="56" viewBox="0 0 56 56" fill="none" xmlns="http://www.w3.org/2000/svg">
<circle cx="28" cy="28" r="28" fill="#425876"/>
<path d="M24.5 35H24C20 35 18 34 18 29V24C18 20 20 18 24 18H32C36 18 38 20 38 24V29C38 33 36 35 32 35H31.5C31.19 35 30.89 35.15 30.7 35.4L29.2 37.4C28.54 38.28 27.46 38.28 26.8 37.4L25.3 35.4C25.14 35.18 24.77 35 24.5 35Z" fill="white" stroke="white" stroke-width="1.5" stroke-miterlimit="10" stroke-linecap="round" stroke-linejoin="round"/>
<path d="M31.9945 27H32.0035" stroke="#425876" stroke-width="2" stroke-linecap="round" stroke-linejoin="round"/>
<path d="M27.9945 27H28.0035" stroke="#425876" stroke-width="2" stroke-linecap="round" stroke-linejoin="round"/>
<path d="M23.9945 27H24.0035" stroke="#425876" stroke-width="2" stroke-linecap="round" stroke-linejoin="round"/>
</svg>
