<svg width="43" height="19" viewBox="0 0 43 19" fill="none" xmlns="http://www.w3.org/2000/svg">
<path d="M32.1538 14.7015C32.1538 16.2377 33.2746 17.3277 34.4738 17.3277C35.6731 17.3277 36.7939 16.2377 36.7939 14.7015C36.7939 13.1652 35.6731 12.0752 34.4738 12.0752C33.2746 12.0752 32.1538 13.1652 32.1538 14.7015Z" fill="#F3F3F3" stroke="white" stroke-width="2.03226"/>
<path d="M4.32368 14.8737C4.32368 16.4099 5.44455 17.4999 6.64376 17.4999C7.84298 17.4999 8.96385 16.4099 8.96385 14.8737C8.96385 13.3374 7.84298 12.2475 6.64376 12.2475C5.44455 12.2475 4.32368 13.3374 4.32368 14.8737Z" fill="#F3F3F3" stroke="white" stroke-width="2.03226"/>
<path d="M41.4521 14.166C40.1146 14.2994 38.777 14.2994 38.777 14.2994C38.777 14.2994 38.8318 13.2807 38.5773 12.5432C38.1537 11.3157 37.6998 10.6519 36.5809 10.2313C35.0666 9.66203 33.8258 9.69777 32.2885 10.3425C30.8511 11.2761 30.5517 11.7429 30.0725 13.099C29.8628 13.9262 29.8729 14.8107 29.8729 14.8107H11.2661C11.2661 14.8107 11.3996 13.543 11.1663 12.8989C10.9718 12.3618 10.9036 12.1872 10.5474 11.7652C9.98774 11.1023 9.51262 10.6709 8.75061 10.3425C7.51282 9.80892 6.59714 9.80284 5.29672 10.3425C3.96134 10.8966 3.16932 11.6008 2.76131 13.1212C2.54032 13.9447 2.60159 14.8107 2.60159 14.8107C2.60159 14.8107 1.75825 14.8432 1.24402 14.6996C0.787441 14.572 0.526234 14.5192 0.165882 14.2105C-0.0863075 13.0222 -0.017952 12.2958 0.150997 10.5007L0.165882 10.3425C0.525303 9.2754 0.861584 8.81168 1.56339 8.07496C2.5097 7.08155 3.31783 6.90868 4.53807 6.40768C8.59089 5.82969 13.0229 5.82969 13.0229 5.82969C15.8609 3.93712 16.4768 3.27315 20.2899 0.983464C22.7656 0.494369 31.1705 0.160908 37.2596 0.983464C39.5922 2.61887 40.9131 3.89565 42.2507 6.54106C42.4583 7.65459 42.2507 8.16388 42.2507 9.45324C42.4522 9.79061 42.7186 9.84192 42.9095 10.1868C43.0493 11.1427 43.0094 11.5873 42.9095 12.5432C41.9513 13.8993 42.1306 13.677 41.4521 14.166Z" fill="white"/>
</svg>
