<svg width="29" height="29" viewBox="0 0 29 29" fill="none" xmlns="http://www.w3.org/2000/svg">
<path d="M25.375 12.0834C25.375 20.5417 14.5 27.7917 14.5 27.7917C14.5 27.7917 3.625 20.5417 3.625 12.0834C3.625 9.19914 4.77076 6.43304 6.81021 4.39359C8.84967 2.35413 11.6158 1.20837 14.5 1.20837C17.3842 1.20837 20.1503 2.35413 22.1898 4.39359C24.2292 6.43304 25.375 9.19914 25.375 12.0834Z" fill="#425876"/>
<path d="M14.5001 16.9167C17.1695 16.9167 19.3334 14.7527 19.3334 12.0833C19.3334 9.41396 17.1695 7.25 14.5001 7.25C11.8307 7.25 9.66675 9.41396 9.66675 12.0833C9.66675 14.7527 11.8307 16.9167 14.5001 16.9167Z" fill="white"/>
</svg>
