<svg width="29" height="29" viewBox="0 0 29 29" fill="none" xmlns="http://www.w3.org/2000/svg">
<g clip-path="url(#clip0_1_1224)">
<path d="M25.375 12.083C25.375 20.5413 14.5 27.7913 14.5 27.7913C14.5 27.7913 3.625 20.5413 3.625 12.083C3.625 9.19878 4.77076 6.43268 6.81021 4.39322C8.84967 2.35376 11.6158 1.20801 14.5 1.20801C17.3842 1.20801 20.1503 2.35376 22.1898 4.39322C24.2292 6.43268 25.375 9.19878 25.375 12.083Z" fill="#2C3C50" stroke="#C3C9E9" stroke-width="1.54712" stroke-linecap="round" stroke-linejoin="round"/>
<path d="M14.5 16.9164C17.1694 16.9164 19.3334 14.7525 19.3334 12.0831C19.3334 9.41371 17.1694 7.24976 14.5 7.24976C11.8306 7.24976 9.66669 9.41371 9.66669 12.0831C9.66669 14.7525 11.8306 16.9164 14.5 16.9164Z" fill="white"/>
</g>
<defs>
<clipPath id="clip0_1_1224">
<rect y="-0.000244141" width="29" height="29" rx="8.21312" fill="white"/>
</clipPath>
</defs>
</svg>
