<svg width="29" height="29" viewBox="0 0 29 29" fill="none" xmlns="http://www.w3.org/2000/svg">
<path d="M25.375 12.0833C25.375 20.5416 14.5 27.7916 14.5 27.7916C14.5 27.7916 3.625 20.5416 3.625 12.0833C3.625 9.19902 4.77076 6.43292 6.81021 4.39346C8.84967 2.35401 11.6158 1.20825 14.5 1.20825C17.3842 1.20825 20.1503 2.35401 22.1898 4.39346C24.2292 6.43292 25.375 9.19902 25.375 12.0833Z" fill="#425876"/>
<path d="M14.5 16.9167C17.1693 16.9167 19.3333 14.7527 19.3333 12.0833C19.3333 9.41396 17.1693 7.25 14.5 7.25C11.8306 7.25 9.66663 9.41396 9.66663 12.0833C9.66663 14.7527 11.8306 16.9167 14.5 16.9167Z" fill="white"/>
</svg>
