<svg width="14" height="15" viewBox="0 0 14 15" fill="none" xmlns="http://www.w3.org/2000/svg">
<path d="M12.25 6.33337C12.25 10.4167 7 13.9167 7 13.9167C7 13.9167 1.75 10.4167 1.75 6.33337C1.75 4.94099 2.30312 3.60563 3.28769 2.62106C4.27226 1.6365 5.60761 1.08337 7 1.08337C8.39239 1.08337 9.72774 1.6365 10.7123 2.62106C11.6969 3.60563 12.25 4.94099 12.25 6.33337Z" fill="#425876"/>
<path d="M7.00033 8.66667C8.28899 8.66667 9.33366 7.622 9.33366 6.33333C9.33366 5.04467 8.28899 4 7.00033 4C5.71166 4 4.66699 5.04467 4.66699 6.33333C4.66699 7.622 5.71166 8.66667 7.00033 8.66667Z" fill="white"/>
</svg>
