<svg width="29" height="29" viewBox="0 0 29 29" fill="none" xmlns="http://www.w3.org/2000/svg">
<path d="M25.375 12.0835C25.375 20.5418 14.5 27.7918 14.5 27.7918C14.5 27.7918 3.625 20.5418 3.625 12.0835C3.625 9.19927 4.77076 6.43317 6.81021 4.39371C8.84967 2.35425 11.6158 1.2085 14.5 1.2085C17.3842 1.2085 20.1503 2.35425 22.1898 4.39371C24.2292 6.43317 25.375 9.19927 25.375 12.0835Z" fill="#425876"/>
<path d="M14.5 16.9167C17.1694 16.9167 19.3334 14.7527 19.3334 12.0833C19.3334 9.41396 17.1694 7.25 14.5 7.25C11.8306 7.25 9.66669 9.41396 9.66669 12.0833C9.66669 14.7527 11.8306 16.9167 14.5 16.9167Z" fill="white"/>
</svg>
