<svg width="35" height="35" viewBox="0 0 35 35" fill="none" xmlns="http://www.w3.org/2000/svg">
<circle cx="17.5" cy="17.5" r="16.5" stroke="#425876" stroke-width="2"/>
<g clip-path="url(#clip0_1_2077)">
<path d="M17.4987 6.2998C14.6447 6.2998 14.289 6.31359 13.172 6.36084C12.0505 6.41596 11.2919 6.58987 10.6225 6.84974C9.93213 7.12012 9.34413 7.47909 8.76334 8.06315C8.17862 8.64393 7.81638 9.23193 7.54994 9.9223C7.29006 10.5917 7.11616 11.3503 7.06103 12.4718C7.0105 13.5894 7 13.9445 7 16.7985C7 19.6525 7.01378 20.0082 7.06103 21.1251C7.11616 22.2434 7.29006 23.0053 7.54994 23.6747C7.82031 24.3651 8.17928 24.9531 8.76334 25.5338C9.34413 26.1186 9.93213 26.4808 10.6225 26.7472C11.2919 27.0038 12.0538 27.181 13.172 27.2361C14.2896 27.2867 14.6447 27.2972 17.4987 27.2972C20.3527 27.2972 20.7084 27.2834 21.8253 27.2361C22.9436 27.181 23.7055 27.0032 24.3749 26.7472C25.0653 26.4769 25.6533 26.1179 26.234 25.5338C26.8188 24.9531 27.181 24.3683 27.4474 23.6747C27.704 23.0053 27.8812 22.2434 27.9363 21.1251C27.9869 20.0076 27.9974 19.6525 27.9974 16.7985C27.9974 13.9445 27.9836 13.5888 27.9363 12.4718C27.8812 11.3536 27.7034 10.5877 27.4474 9.9223C27.1771 9.23193 26.8181 8.64393 26.234 8.06315C25.6533 7.47843 25.0685 7.11618 24.3749 6.84974C23.7055 6.58987 22.9436 6.41596 21.8253 6.36084C20.7078 6.3103 20.3527 6.2998 17.4987 6.2998V6.2998ZM17.4987 8.1898C20.3015 8.1898 20.6362 8.20359 21.744 8.25084C22.7658 8.29874 23.3223 8.46937 23.6917 8.61374C24.1846 8.80471 24.5291 9.03046 24.9018 9.39927C25.2674 9.7648 25.4931 10.1133 25.6841 10.6061C25.8285 10.9756 25.9991 11.5321 26.047 12.5539C26.0943 13.6616 26.108 13.997 26.108 16.7991C26.108 19.6013 26.0943 19.9367 26.0431 21.0444C25.9879 22.0662 25.8173 22.6227 25.6736 22.9922C25.4748 23.485 25.2529 23.8296 24.8868 24.2023C24.5173 24.5678 24.1655 24.7936 23.6766 24.9846C23.3118 25.1289 22.7474 25.2996 21.7217 25.3475C20.608 25.3947 20.2799 25.4085 17.4698 25.4085C14.6598 25.4085 14.3323 25.3947 13.2173 25.3435C12.1955 25.2884 11.6318 25.1178 11.2623 24.9741C10.7636 24.7752 10.4217 24.5534 10.0555 24.1872C9.68603 23.8177 9.45109 23.466 9.26997 22.9771C9.12297 22.6122 8.95497 22.0478 8.9005 21.0221C8.86309 19.9216 8.84538 19.5803 8.84538 16.7834C8.84538 13.9878 8.86309 13.6459 8.9005 12.5316C8.95497 11.5058 9.12297 10.9428 9.26997 10.5766C9.45109 10.0772 9.68669 9.73593 10.0555 9.36646C10.421 9.00093 10.7636 8.76468 11.2623 8.57962C11.6318 8.4359 12.1818 8.26527 13.2075 8.21409C14.3211 8.17405 14.6493 8.15962 17.4554 8.15962L17.4987 8.1898ZM17.4987 11.41C14.5187 11.41 12.1089 13.8231 12.1089 16.7998C12.1089 19.7798 14.5219 22.1896 17.4987 22.1896C20.4787 22.1896 22.8885 19.7766 22.8885 16.7998C22.8885 13.8198 20.4754 11.41 17.4987 11.41V11.41ZM17.4987 20.2996C15.5641 20.2996 13.9989 18.7344 13.9989 16.7998C13.9989 14.8652 15.5641 13.3 17.4987 13.3C19.4333 13.3 20.9985 14.8652 20.9985 16.7998C20.9985 18.7344 19.4333 20.2996 17.4987 20.2996V20.2996ZM24.3657 11.1948C24.3657 11.8924 23.798 12.4554 23.1037 12.4554C22.4061 12.4554 21.8431 11.8917 21.8431 11.1948C21.8431 10.5011 22.4101 9.93674 23.1037 9.93674C23.7974 9.93674 24.3657 10.5011 24.3657 11.1948V11.1948Z" fill="#425876"/>
</g>
<defs>
<clipPath id="clip0_1_2077">
<rect width="21" height="21" fill="white" transform="translate(7 6.2998)"/>
</clipPath>
</defs>
</svg>
