<svg width="35" height="35" viewBox="0 0 35 35" fill="none" xmlns="http://www.w3.org/2000/svg">
<circle cx="17.5" cy="17.5" r="16.5" stroke="#425876" stroke-width="2"/>
<g clip-path="url(#clip0_1_685)">
<path d="M17.4987 6.30005C14.6447 6.30005 14.289 6.31383 13.172 6.36108C12.0505 6.41621 11.2919 6.59011 10.6225 6.84999C9.93213 7.12036 9.34413 7.47933 8.76334 8.06339C8.17862 8.64417 7.81638 9.23217 7.54994 9.92255C7.29006 10.5919 7.11616 11.3505 7.06103 12.4721C7.0105 13.5897 7 13.9447 7 16.7987C7 19.6528 7.01378 20.0085 7.06103 21.1254C7.11616 22.2436 7.29006 23.0055 7.54994 23.6749C7.82031 24.3653 8.17928 24.9533 8.76334 25.5341C9.34413 26.1188 9.93213 26.481 10.6225 26.7475C11.2919 27.0041 12.0538 27.1813 13.172 27.2364C14.2896 27.2869 14.6447 27.2974 17.4987 27.2974C20.3527 27.2974 20.7084 27.2836 21.8253 27.2364C22.9436 27.1813 23.7055 27.0034 24.3749 26.7475C25.0653 26.4771 25.6533 26.1181 26.234 25.5341C26.8188 24.9533 27.181 24.3686 27.4474 23.6749C27.704 23.0055 27.8812 22.2436 27.9363 21.1254C27.9869 20.0078 27.9974 19.6528 27.9974 16.7987C27.9974 13.9447 27.9836 13.589 27.9363 12.4721C27.8812 11.3538 27.7034 10.588 27.4474 9.92255C27.1771 9.23217 26.8181 8.64417 26.234 8.06339C25.6533 7.47867 25.0685 7.11642 24.3749 6.84999C23.7055 6.59011 22.9436 6.41621 21.8253 6.36108C20.7078 6.31055 20.3527 6.30005 17.4987 6.30005V6.30005ZM17.4987 8.19005C20.3015 8.19005 20.6362 8.20383 21.744 8.25108C22.7658 8.29899 23.3223 8.46961 23.6917 8.61399C24.1846 8.80496 24.5291 9.03071 24.9018 9.39952C25.2674 9.76505 25.4931 10.1135 25.6841 10.6064C25.8285 10.9758 25.9991 11.5323 26.047 12.5541C26.0943 13.6619 26.108 13.9972 26.108 16.7994C26.108 19.6016 26.0943 19.9369 26.0431 21.0447C25.9879 22.0665 25.8173 22.623 25.6736 22.9924C25.4748 23.4853 25.2529 23.8298 24.8868 24.2025C24.5173 24.5681 24.1655 24.7938 23.6766 24.9848C23.3118 25.1292 22.7474 25.2998 21.7217 25.3477C20.608 25.395 20.2799 25.4087 17.4698 25.4087C14.6598 25.4087 14.3323 25.395 13.2173 25.3438C12.1955 25.2886 11.6318 25.118 11.2623 24.9743C10.7636 24.7755 10.4217 24.5536 10.0555 24.1875C9.68603 23.818 9.45109 23.4662 9.26997 22.9773C9.12297 22.6125 8.95497 22.0481 8.9005 21.0224C8.86309 19.9218 8.84538 19.5806 8.84538 16.7836C8.84538 13.988 8.86309 13.6461 8.9005 12.5318C8.95497 11.5061 9.12297 10.943 9.26997 10.5768C9.45109 10.0774 9.68669 9.73617 10.0555 9.3667C10.421 9.00117 10.7636 8.76492 11.2623 8.57986C11.6318 8.43614 12.1818 8.26552 13.2075 8.21433C14.3211 8.1743 14.6493 8.15986 17.4554 8.15986L17.4987 8.19005ZM17.4987 11.4103C14.5187 11.4103 12.1089 13.8233 12.1089 16.8C12.1089 19.7801 14.5219 22.1898 17.4987 22.1898C20.4787 22.1898 22.8885 19.7768 22.8885 16.8C22.8885 13.82 20.4754 11.4103 17.4987 11.4103V11.4103ZM17.4987 20.2998C15.5641 20.2998 13.9989 18.7347 13.9989 16.8C13.9989 14.8654 15.5641 13.3003 17.4987 13.3003C19.4333 13.3003 20.9985 14.8654 20.9985 16.8C20.9985 18.7347 19.4333 20.2998 17.4987 20.2998V20.2998ZM24.3657 11.195C24.3657 11.8926 23.798 12.4557 23.1037 12.4557C22.4061 12.4557 21.8431 11.892 21.8431 11.195C21.8431 10.5014 22.4101 9.93699 23.1037 9.93699C23.7974 9.93699 24.3657 10.5014 24.3657 11.195V11.195Z" fill="#425876"/>
</g>
<defs>
<clipPath id="clip0_1_685">
<rect width="21" height="21" fill="white" transform="translate(7 6.30005)"/>
</clipPath>
</defs>
</svg>
