<svg width="35" height="35" viewBox="0 0 35 35" fill="none" xmlns="http://www.w3.org/2000/svg">
<g clip-path="url(#clip0_1_667)">
<path d="M13.06 13.604H10.2494C10.1247 13.604 10.0236 13.7051 10.0236 13.8298V22.8588C10.0236 22.9835 10.1247 23.0846 10.2494 23.0846H13.06C13.1847 23.0846 13.2858 22.9835 13.2858 22.8588V13.8298C13.2858 13.7051 13.1847 13.604 13.06 13.604Z" fill="#425876"/>
<path d="M11.6554 9.11548C10.6327 9.11548 9.80078 9.94654 9.80078 10.968C9.80078 11.99 10.6327 12.8214 11.6554 12.8214C12.6772 12.8214 13.5085 11.9899 13.5085 10.968C13.5085 9.94654 12.6772 9.11548 11.6554 9.11548Z" fill="#425876"/>
<path d="M20.2063 13.3796C19.0775 13.3796 18.2431 13.8649 17.7369 14.4163V13.8299C17.7369 13.7052 17.6359 13.604 17.5111 13.604H14.8196C14.6948 13.604 14.5938 13.7052 14.5938 13.8299V22.8589C14.5938 22.9836 14.6948 23.0847 14.8196 23.0847H17.6239C17.7487 23.0847 17.8497 22.9836 17.8497 22.8589V18.3916C17.8497 16.8862 18.2586 16.2998 19.308 16.2998C20.4509 16.2998 20.5417 17.2399 20.5417 18.469V22.8589C20.5417 22.9836 20.6427 23.0847 20.7675 23.0847H23.5729C23.6976 23.0847 23.7987 22.9836 23.7987 22.8589V17.9063C23.7987 15.6679 23.3719 13.3796 20.2063 13.3796Z" fill="#425876"/>
</g>
<circle cx="17.5" cy="17.5" r="16.5" stroke="#425876" stroke-width="2"/>
<defs>
<clipPath id="clip0_1_667">
<rect width="14" height="14" fill="white" transform="translate(9.80078 9.1001)"/>
</clipPath>
</defs>
</svg>
