<svg width="35" height="35" viewBox="0 0 35 35" fill="none" xmlns="http://www.w3.org/2000/svg">
<g clip-path="url(#clip0_1_2059)">
<path d="M13.06 13.604H10.2494C10.1247 13.604 10.0236 13.7051 10.0236 13.8298V22.8588C10.0236 22.9835 10.1247 23.0846 10.2494 23.0846H13.06C13.1847 23.0846 13.2858 22.9835 13.2858 22.8588V13.8298C13.2858 13.7051 13.1847 13.604 13.06 13.604Z" fill="#425876"/>
<path d="M11.6554 9.11572C10.6327 9.11572 9.80078 9.94678 9.80078 10.9683C9.80078 11.9902 10.6327 12.8216 11.6554 12.8216C12.6772 12.8216 13.5085 11.9902 13.5085 10.9683C13.5085 9.94678 12.6772 9.11572 11.6554 9.11572Z" fill="#425876"/>
<path d="M20.2063 13.3799C19.0775 13.3799 18.2431 13.8651 17.7369 14.4165V13.8301C17.7369 13.7054 17.6359 13.6043 17.5111 13.6043H14.8196C14.6948 13.6043 14.5938 13.7054 14.5938 13.8301V22.8591C14.5938 22.9838 14.6948 23.0849 14.8196 23.0849H17.6239C17.7487 23.0849 17.8497 22.9838 17.8497 22.8591V18.3918C17.8497 16.8865 18.2586 16.3 19.308 16.3C20.4509 16.3 20.5417 17.2402 20.5417 18.4693V22.8591C20.5417 22.9839 20.6427 23.085 20.7675 23.085H23.5729C23.6976 23.085 23.7987 22.9839 23.7987 22.8591V17.9066C23.7987 15.6682 23.3719 13.3799 20.2063 13.3799Z" fill="#425876"/>
</g>
<circle cx="17.5" cy="17.5" r="16.5" stroke="#425876" stroke-width="2"/>
<defs>
<clipPath id="clip0_1_2059">
<rect width="14" height="14" fill="white" transform="translate(9.80078 9.1001)"/>
</clipPath>
</defs>
</svg>
