<svg width="20" height="19" viewBox="0 0 20 19" fill="none" xmlns="http://www.w3.org/2000/svg">
<path d="M9.80979 1.08541C9.86966 0.901148 10.1303 0.901148 10.1902 1.08541L12.2002 7.27163C12.227 7.35404 12.3038 7.40983 12.3904 7.40983H18.895C19.0888 7.40983 19.1693 7.65775 19.0126 7.77163L13.7503 11.5949C13.6802 11.6459 13.6508 11.7361 13.6776 11.8185L15.6876 18.0048C15.7475 18.189 15.5366 18.3422 15.3799 18.2284L10.1176 14.4051C10.0475 14.3541 9.95254 14.3541 9.88244 14.4051L4.62013 18.2284C4.46338 18.3422 4.25249 18.189 4.31236 18.0048L6.32238 11.8185C6.34916 11.7361 6.31983 11.6459 6.24973 11.5949L0.987415 7.77163C0.830672 7.65775 0.911227 7.40983 1.10497 7.40983H7.60955C7.6962 7.40983 7.77299 7.35404 7.79976 7.27163L9.80979 1.08541Z" fill="#F2994A"/>
</svg>
