<svg width="24" height="23" viewBox="0 0 24 23" fill="none" xmlns="http://www.w3.org/2000/svg">
<path d="M11.0489 1.42681C11.3483 0.505494 12.6517 0.505496 12.9511 1.42681L14.9187 7.48253C15.0526 7.89456 15.4365 8.17352 15.8697 8.17352H22.2371C23.2058 8.17352 23.6086 9.41313 22.8249 9.98253L17.6736 13.7252C17.3231 13.9798 17.1764 14.4312 17.3103 14.8432L19.2779 20.8989C19.5773 21.8203 18.5228 22.5864 17.7391 22.017L12.5878 18.2743C12.2373 18.0197 11.7627 18.0197 11.4122 18.2743L6.2609 22.017C5.47719 22.5864 4.42271 21.8203 4.72206 20.8989L6.68969 14.8432C6.82356 14.4312 6.6769 13.9798 6.32642 13.7252L1.17511 9.98253C0.391392 9.41313 0.794168 8.17352 1.76289 8.17352H8.13026C8.56349 8.17352 8.94744 7.89456 9.08132 7.48253L11.0489 1.42681Z" fill="#E4D014"/>
</svg>
