<svg width="35" height="35" viewBox="0 0 35 35" fill="none" xmlns="http://www.w3.org/2000/svg">
<path d="M27.5362 11.72C27.2911 10.8142 26.5835 10.1065 25.6777 9.86143C24.048 9.41699 17.4892 9.41699 17.4892 9.41699C17.4892 9.41699 10.9304 9.43046 9.30075 9.8749C8.39491 10.12 7.6873 10.8276 7.44218 11.7335C6.94926 14.629 6.75802 19.0411 7.45565 21.8209C7.70077 22.7267 8.40837 23.4343 9.31421 23.6794C10.9438 24.1239 17.5027 24.1239 17.5027 24.1239C17.5027 24.1239 24.0615 24.1239 25.6911 23.6794C26.597 23.4343 27.3046 22.7267 27.5497 21.8209C28.0695 18.9213 28.2298 14.5119 27.5362 11.72Z" fill="#425876"/>
<path d="M15.4023 19.9221L20.8434 16.7706L15.4023 13.6191V19.9221Z" fill="white"/>
<circle cx="17.5" cy="17.5" r="16.5" stroke="#425876" stroke-width="2"/>
</svg>
