<svg width="35" height="35" viewBox="0 0 35 35" fill="none" xmlns="http://www.w3.org/2000/svg">
<path d="M27.5362 11.7202C27.2911 10.8144 26.5835 10.1068 25.6777 9.86168C24.048 9.41724 17.4892 9.41724 17.4892 9.41724C17.4892 9.41724 10.9304 9.4307 9.30075 9.87514C8.39491 10.1203 7.6873 10.8279 7.44218 11.7337C6.94926 14.6293 6.75802 19.0414 7.45565 21.8211C7.70077 22.727 8.40837 23.4346 9.31421 23.6797C10.9438 24.1241 17.5027 24.1241 17.5027 24.1241C17.5027 24.1241 24.0615 24.1241 25.6911 23.6797C26.597 23.4346 27.3046 22.727 27.5497 21.8211C28.0695 18.9215 28.2298 14.5121 27.5362 11.7202Z" fill="#425876"/>
<path d="M15.4023 19.9223L20.8434 16.7709L15.4023 13.6194V19.9223Z" fill="white"/>
<circle cx="17.5" cy="17.5" r="16.5" stroke="#425876" stroke-width="2"/>
</svg>
